<?xml version="1.0" standalone="no"?>
<!DOCTYPE svg PUBLIC "-//W3C//DTD SVG 20010904//EN"
 "http://www.w3.org/TR/2001/REC-SVG-20010904/DTD/svg10.dtd">
<svg version="1.0" xmlns="http://www.w3.org/2000/svg"
 width="500.000000pt" height="500.000000pt" viewBox="0 0 500.000000 500.000000"
 preserveAspectRatio="xMidYMid meet">

<g transform="translate(0.000000,500.000000) scale(0.100000,-0.100000)"
fill="#000000" stroke="none">
<path d="M2119 3159 c-155 -23 -267 -163 -256 -319 6 -89 35 -150 104 -215
l57 -55 78 0 c43 0 78 1 78 3 0 2 -45 43 -100 90 -107 94 -143 146 -155 228
-10 70 8 121 61 168 59 52 129 75 204 68 104 -9 180 -65 227 -166 22 -45 25
-63 21 -120 -3 -36 -12 -80 -21 -97 -15 -30 -19 -31 -61 -27 -42 5 -45 4 -51
-20 -12 -48 -3 -62 40 -62 37 0 43 4 72 48 18 27 37 65 43 85 13 47 13 389 0
397 -5 3 -16 -10 -24 -29 -19 -46 -54 -56 -94 -27 -59 42 -146 61 -223 50z"/>
<path d="M3109 3142 c-5 -16 -21 -35 -34 -42 -20 -11 -32 -8 -95 24 -63 31
-82 36 -144 36 -117 0 -212 -56 -276 -164 -17 -29 -25 -59 -28 -115 -6 -108
21 -176 100 -253 l59 -58 79 0 c44 0 80 2 80 5 0 2 -21 20 -47 40 -80 60 -158
142 -181 189 -47 93 -38 193 22 249 75 69 171 92 271 62 46 -13 69 -28 111
-70 28 -30 58 -71 65 -92 18 -55 17 -141 -4 -194 -17 -45 -18 -45 -63 -45 -38
1 -48 -3 -54 -19 -4 -11 -4 -30 1 -42 7 -18 16 -23 44 -23 32 0 39 5 70 54 47
74 54 115 55 308 0 166 -9 212 -31 150z"/>
<path d="M3376 3108 c-7 -40 -45 -78 -77 -78 -11 0 -19 -4 -19 -10 0 -5 8 -10
19 -10 31 0 70 -38 77 -77 l7 -36 16 43 c17 44 25 53 76 71 l30 11 -39 13
c-48 17 -52 21 -69 70 l-14 40 -7 -37z"/>
<path d="M1782 2489 c-15 -6 -22 -17 -22 -33 0 -20 7 -27 32 -34 47 -12 50
-36 4 -30 -25 3 -36 0 -36 -9 0 -14 46 -18 74 -7 29 11 18 44 -19 60 -43 18
-45 34 -5 34 17 0 30 4 30 9 0 13 -33 19 -58 10z"/>
<path d="M2456 2493 c-3 -3 -6 -33 -6 -65 0 -45 3 -58 15 -58 8 0 15 9 15 19
0 31 18 34 36 6 9 -14 23 -25 31 -25 12 0 9 8 -10 33 l-26 34 27 26 c36 36 7
36 -30 0 l-28 -27 0 27 c0 26 -12 42 -24 30z"/>
<path d="M2810 2460 c-36 -71 -41 -90 -25 -90 8 0 15 7 15 15 0 22 59 20 76
-2 7 -10 15 -15 19 -11 6 6 -51 128 -60 128 -2 0 -14 -18 -25 -40z m40 -26 c0
-8 -7 -14 -15 -14 -17 0 -18 2 -9 24 7 18 24 12 24 -10z"/>
<path d="M3000 2493 c-24 -8 -40 -35 -40 -64 0 -40 25 -61 69 -57 31 3 36 7
39 31 2 15 -1 27 -7 27 -6 0 -11 -9 -11 -21 0 -16 -5 -20 -26 -17 -65 7 -55
74 10 72 42 -1 47 12 10 26 -14 6 -26 10 -27 9 -1 0 -9 -3 -17 -6z"/>
<path d="M1920 2430 c0 -47 3 -60 15 -60 8 0 15 6 15 14 0 7 13 16 29 19 37 8
56 39 41 67 -8 15 -21 20 -55 20 l-45 0 0 -60z m80 20 c0 -11 -3 -20 -7 -21
-5 0 -16 -2 -25 -4 -13 -2 -18 3 -18 21 0 19 5 24 25 24 18 0 25 -5 25 -20z"/>
<path d="M2130 2486 c0 -2 -11 -29 -25 -60 -20 -45 -22 -56 -10 -56 8 0 15 7
15 15 0 10 11 15 35 15 24 0 35 -5 35 -15 0 -8 7 -15 15 -15 19 0 19 0 -11 65
-15 30 -33 55 -40 55 -8 0 -14 -2 -14 -4z m30 -52 c0 -8 -7 -14 -15 -14 -17 0
-18 2 -9 24 7 18 24 12 24 -10z"/>
<path d="M2280 2431 c0 -34 4 -61 10 -61 6 0 10 7 10 15 0 8 9 15 20 15 11 0
23 -7 26 -15 4 -8 13 -15 20 -15 12 0 12 4 4 20 -8 14 -7 25 2 40 20 31 -1 54
-51 58 l-41 3 0 -60z m76 27 c8 -12 -24 -40 -41 -35 -5 2 -11 13 -13 25 -3 18
2 22 22 22 14 0 28 -5 32 -12z"/>
<path d="M2626 2474 c-11 -28 -7 -35 29 -50 47 -19 46 -38 -1 -31 -25 4 -34 2
-31 -6 5 -17 78 -21 88 -5 16 25 9 39 -26 54 -43 18 -45 34 -5 34 17 0 30 5
30 10 0 17 -77 12 -84 -6z"/>
<path d="M3150 2430 l0 -60 45 0 c25 0 45 5 45 10 0 6 -16 10 -35 10 -24 0
-35 5 -35 15 0 10 10 15 30 15 17 0 30 5 30 10 0 6 -13 10 -30 10 -20 0 -30 5
-30 15 0 10 11 15 35 15 19 0 35 5 35 10 0 6 -20 10 -45 10 l-45 0 0 -60z"/>
<path d="M2370 2248 c57 -107 49 -198 -23 -265 -54 -50 -103 -68 -187 -67 -81
1 -151 34 -204 96 -35 41 -66 118 -66 165 0 14 -6 23 -15 23 -13 0 -15 -24
-15 -160 0 -121 3 -160 13 -160 6 0 19 15 27 33 20 43 45 44 116 5 54 -30 66
-33 144 -33 103 1 158 22 223 88 71 71 103 186 81 296 -6 30 -8 31 -64 31
l-58 0 28 -52z"/>
<path d="M3010 2291 c0 -5 7 -14 14 -21 8 -6 22 -30 30 -53 47 -128 15 -217
-97 -271 -73 -35 -133 -41 -199 -22 -103 30 -198 144 -198 239 0 26 -4 37 -15
37 -13 0 -15 -24 -15 -160 0 -136 2 -160 15 -160 8 0 15 8 15 18 0 24 31 52
56 52 11 0 36 -11 55 -25 141 -95 362 -28 441 134 26 55 35 154 18 205 -11 35
-12 36 -66 36 -30 0 -54 -4 -54 -9z"/>
</g>
</svg>
